<svg xmlns="http://www.w3.org/2000/svg" version="1.1" xmlns:xlink="http://www.w3.org/1999/xlink" xmlns:svgjs="http://svgjs.dev/svgjs" width="1500" height="1500" viewBox="0 0 1500 1500"><rect width="1500" height="1500" fill="#000000"></rect><g transform="matrix(0.6666666666666666,0,0,0.6666666666666666,249.88075549042173,381.96491228070175)"><svg viewBox="0 0 335 247" data-background-color="#000000" preserveAspectRatio="xMidYMid meet" height="1105" width="1500" xmlns="http://www.w3.org/2000/svg" xmlns:xlink="http://www.w3.org/1999/xlink"><g id="tight-bounds" transform="matrix(1,0,0,1,0.03994691070872136,-0.09999999999999432)"><svg viewBox="0 0 334.92010617858256 247.2" height="247.2" width="334.92010617858256"><g><svg viewBox="0 0 395.52 291.92796191180815" height="247.2" width="334.92010617858256"><g transform="matrix(1,0,0,1,0,217.20879710942188)"><svg viewBox="0 0 395.52 74.71916480238627" height="74.71916480238627" width="395.52"><g id="textblocktransform"><svg viewBox="0 0 395.52 74.71916480238627" height="74.71916480238627" width="395.52" id="textblock"><g><svg viewBox="0 0 395.52 74.71916480238627" height="74.71916480238627" width="395.52"><g transform="matrix(1,0,0,1,0,0)"><svg width="395.52" viewBox="1.65 -37.5 201.13 38" height="74.71916480238627" data-palette-color="#ffffff"><path d="M12.45 0L1.65 0 1.65-0.8 4.85-2.45 17.65-33.25 19.9-33.25 32.5-2.6 35.85-0.8 35.85 0 23.45 0 23.45-0.8 27.85-2.5 24.1-11.75 11.95-11.75 8.25-2.5 12.45-0.8 12.45 0ZM18.05-26.8L13.1-14.5 23-14.5 18.05-26.8ZM50 0L39.7 0 39.7-0.8 42.85-2.4 42.85-31.8 39.85-34.4 39.85-34.75 46.55-37.5 46.85-37.5 46.85-2.4 50-0.8 50 0ZM65.6 0L54.9 0 54.9-0.8 58.05-2.4 58.05-20.15 54.15-20.15 54.15-22.5 58.05-22.5 58.05-24.5Q58.05-25.5 58.55-27.1 59.05-28.7 60.02-30.48 61-32.25 62.4-33.85 63.8-35.45 65.57-36.48 67.35-37.5 69.5-37.5L69.5-37.5Q69.95-37.5 70.45-37.35 70.95-37.2 71.3-37.05L71.3-37.05Q72.05-36.7 72.42-36.4 72.8-36.1 72.8-35.65L72.8-35.65Q72.8-35.2 72.6-34.75L72.6-34.75 71.6-32.3 71.25-32.3 69.9-32.85Q68.5-33.4 66.65-33.4L66.65-33.4Q63.9-33.4 62.97-31.68 62.05-29.95 62.05-26.5L62.05-26.5 62.05-22.5 68.65-22.5 68.65-20.15 62.05-20.15 62.05-2.3 65.6-0.8 65.6 0ZM77.09 0.5L77.09 0.5Q74.74 0.5 73.19-0.88 71.64-2.25 71.64-4.7L71.64-4.7Q71.64-7.15 73.47-8.95 75.29-10.75 79.59-11.75L79.59-11.75 84.34-12.85 84.34-16.5Q84.34-18.2 82.97-19.43 81.59-20.65 79.84-20.65L79.84-20.65Q77.94-20.65 77.19-19.63 76.44-18.6 76.44-16.9L76.44-16.9 76.44-15.5 76.19-15.25 73.59-15.25Q72.84-15.25 72.57-15.5 72.29-15.75 72.29-16.65L72.29-16.65Q72.29-17.75 72.94-18.9 73.59-20.05 74.94-20.9L74.94-20.9Q76.34-21.8 77.87-22.4 79.39-23 81.14-23L81.14-23Q82.89-23 84.57-22.5 86.24-22 87.29-20.83 88.34-19.65 88.34-17.55L88.34-17.55 88.34-3.35Q88.69-3 89.34-2.75 89.99-2.5 91.14-2.5L91.14-2.5 93.04-2.5 93.19-2.4 93.19-2.25Q92.59-1.15 91.42-0.33 90.24 0.5 88.54 0.5L88.54 0.5Q86.99 0.5 86.02-0.33 85.04-1.15 84.64-2.5L84.64-2.5 84.34-2.5Q83.04-1.2 81.12-0.35 79.19 0.5 77.09 0.5ZM75.54-5.7L75.54-5.7Q75.54-2.6 79.29-2.6L79.29-2.6Q80.49-2.6 81.67-2.85 82.84-3.1 84.34-3.75L84.34-3.75 84.34-11.15Q80.34-10.4 78.49-9.58 76.64-8.75 76.09-7.8 75.54-6.85 75.54-5.7ZM117.84 0L103.34 0 103.34-0.8 108.34-2.8 108.34-30.25 100.19-30.25 96.79-22.9 95.99-22.9 95.99-33 125.19-33 125.19-22.9 124.39-22.9 120.99-30.25 112.84-30.25 112.84-2.8 117.84-0.8 117.84 0ZM140.39 0.5L140.39 0.5Q135.54 0.5 132.74-2.45 129.94-5.4 129.94-10.25L129.94-10.25Q129.94-14 131.41-16.88 132.89-19.75 135.31-21.38 137.74-23 140.59-23L140.59-23Q144.54-23 146.81-20.25 149.09-17.5 149.09-12.35L149.09-12.35 148.84-12.1 133.89-12.1Q133.94-9.8 134.79-7.78 135.64-5.75 137.51-4.5 139.39-3.25 142.54-3.25L142.54-3.25Q145.29-3.25 148.99-5.25L148.99-5.25 149.14-5.25 149.14-4.75Q147.99-2.6 145.71-1.05 143.44 0.5 140.39 0.5ZM139.79-20.8L139.79-20.8Q137.39-20.8 135.86-19.13 134.34-17.45 133.99-14.4L133.99-14.4 145.29-14.4Q144.74-17.8 143.36-19.3 141.99-20.8 139.79-20.8ZM164.59 0.5L164.59 0.5Q159.74 0.5 156.94-2.45 154.14-5.4 154.14-10.25L154.14-10.25Q154.14-14 155.66-16.88 157.19-19.75 159.79-21.38 162.39-23 165.64-23L165.64-23Q167.64-23 169.54-22.33 171.44-21.65 172.44-20.55L172.44-20.55Q173.24-19.6 173.24-19.05L173.24-19.05Q173.24-18.35 172.59-17.85L172.59-17.85 170.69-16.25 170.34-16.25 168.64-18.55Q167.89-19.55 166.76-20.18 165.64-20.8 163.99-20.8L163.99-20.8Q161.24-20.8 159.66-18.63 158.09-16.45 158.09-12.55L158.09-12.55Q158.09-10.15 158.89-8.03 159.69-5.9 161.56-4.58 163.44-3.25 166.74-3.25L166.74-3.25Q169.49-3.25 173.19-5.25L173.19-5.25 173.34-5.25 173.34-4.75Q172.19-2.6 169.91-1.05 167.64 0.5 164.59 0.5ZM188.68 0L177.98 0 177.98-0.8 181.13-2.4 181.13-31.8 178.13-34.4 178.13-34.75 184.83-37.5 185.13-37.5 185.13-19.3 185.33-19.3Q187.23-21.2 189.01-22.1 190.78-23 192.93-23L192.93-23Q195.88-23 197.76-21.53 199.63-20.05 199.63-17.15L199.63-17.15 199.63-2.4 202.78-0.8 202.78 0 192.08 0 192.08-0.8 195.63-2.25 195.63-14.8Q195.63-17 194.26-18.15 192.88-19.3 190.68-19.3L190.68-19.3Q189.33-19.3 187.71-18.85 186.08-18.4 185.13-17.55L185.13-17.55 185.13-2.25 188.68-0.8 188.68 0Z" opacity="1" transform="matrix(1,0,0,1,0,0)" fill="#ffffff" class="wordmark-text-0" data-fill-palette-color="primary" id="text-0"></path></svg></g></svg></g></svg></g></svg></g><g transform="matrix(1,0,0,1,106.7950029951772,0)"><svg viewBox="0 0 181.92999400964558 181.92999400964558" height="181.92999400964558" width="181.92999400964558"><g><svg></svg></g><g id="icon-0"><svg viewBox="0 0 181.92999400964558 181.92999400964558" height="181.92999400964558" width="181.92999400964558"><g><path d="M0 90.965c0-50.239 40.726-90.965 90.965-90.965 50.239 0 90.965 40.726 90.965 90.965 0 50.239-40.726 90.965-90.965 90.965-50.239 0-90.965-40.726-90.965-90.965zM90.965 175.192c46.517 0 84.227-37.71 84.227-84.227 0-46.517-37.71-84.227-84.227-84.227-46.517 0-84.227 37.71-84.227 84.227 0 46.517 37.71 84.227 84.227 84.227z" data-fill-palette-color="tertiary" fill="#8f2f3c" stroke="transparent"></path></g><g transform="matrix(1,0,0,1,38.32372066519386,72.61456594498658)"><svg viewBox="0 0 105.28255267925786 36.70086211967243" height="36.70086211967243" width="105.28255267925786"><g><svg xmlns="http://www.w3.org/2000/svg" xmlns:xlink="http://www.w3.org/1999/xlink" version="1.1" x="0" y="0" viewBox="1.1000000000000014 23.75314506979494 69.9 24.36671791175634" style="enable-background:new 0 0 72 72;" xml:space="preserve" height="36.70086211967243" width="105.28255267925786" class="icon-cg-0" data-fill-palette-color="accent" id="cg-0"><g fill="#8f2f3c" data-fill-palette-color="accent"><path d="M31.1 30.6c0 0-1.2-0.7-1.7-1.2-0.5-0.5-1-1.8-1.5-2.1-0.5-0.3-2.3-1.1-3.2-1.1-0.9 0-2.6-0.5-4.6-1-2-0.5-5-1.9-7-1.3-2 0.6-3.6 2.5-7.1 2.6-1.1 0-4 0.7-4.4 1l-0.5 0.3v1.4c0 0 0.9-0.4 1.4-0.7 0.5-0.3 1.2-0.6 1.8-0.7 0.6 0 4.1-0.5 4.8-0.7 0.6-0.2 3-1.7 3.9-1.9 0.9-0.2 2.6 0.2 3 0.4 0.4 0.2 1.7 0.5 2.1 0.6 0.5 0.1 2.3 0.4 2.8 0.5 0.7 0.1 1.2 0.3 1.2 0.3l1.1 0.1c0 0 0.4 0 0.7 0.2 0.3 0.2 0.5 0.4 0.8 0 0.4-0.4 1-0.1 1.2 0 0.3 0.1 0.7 0.4 0.9 0.6 0.2 0.2 0.1 0.5 0.3 0.8 0.2 0.3 2.2 1.7 2.6 2 0.4 0.3 1.4 1.3 1.6 1.5 0.2 0.3 0.9 1.2 1.1 1.6 0.2 0.4 1 1.9 1.1 2.2 0 0.4 0.3 1.2 0.3 1.5 0 0.3 0 0.4 0 0.6-0.1 0.3-0.4 0.5-0.6 0.4-0.3-0.1-0.6-0.2-0.7-0.7-0.1-0.5-0.4-2-0.6-2.2-0.2-0.2-1-0.9-1.3-1.1-0.3-0.3-3.2-2.7-3.6-2.7-0.4 0-1.8-0.4-3 0.7-1.3 1.1-1.4 1.2-1.6 1.2-0.3-0.1-0.4 0.2-0.7-0.4-0.3-0.5-0.6-0.8-0.6-0.8s0 1.1 0.3 1.6c0.3 0.5 0.9 1.2 1.3 1.5 0.4 0.3 1 0.9 1.1 1.1 0.1 0.3 1.2 0.9 1.5 1.6 0.3 0.7 0.4 0.6 0.3 1-0.1 0.5-0.6 1.1-0.3 1.5 0.3 0.4 0.3 0.7 0.3 0.7l-1.8-1.6c0 0-4-3.5-4.5-3.6-0.5-0.1-3.9-3-4.1-4.8-0.2-1.8-1.4-1.4-1.4-1.4s0 0.6 0.2 1c0.2 0.4 0.5 1.2 0 1.4-0.5 0.3-4.9 2.6-5.4 3.2-0.5 0.6-7.1 6.1-7.1 6.1l-0.3 1.1h0.6c0 0 3-1.8 4.1-2.9 1.2-1.2 3.4-3.1 3.4-3.1s1.6-1.6 2.3-2c0.7-0.4 1.7-0.8 2.6-0.7 0.9 0.1 1.4 0.7 2.1 1.3 0.7 0.6 1.8 1.4 2.5 1.8 0.6 0.4 1.3 0.8 1.9 1.2 0.3 0.2 0.6 0.4 0.9 0.7 0.3 0.3 0.7 0.5 0.9 0.8 0.2 0.2 0.3 0.5 0.5 0.8 0.3 0.5 0.5 1.2 1.1 1.4 0.5 0.2 1.1 0.3 1.6 0.4 0.6 0.1 1.7 0.4 2.1 0.1 0.4-0.3 0.6-0.6 1.1-0.3 0.5 0.4 1 0.7 1.3 0.5 0.4-0.2 1-0.9 1.3-1.4 0.3-0.5 0.3-1.1 0.5-1.9 0.2-0.9-0.3-1.2 0.2-0.9 0.5 0.4 2 0.9 2.4 0.6 0.4-0.3 0.4-0.6 0.4-1C34.7 37.6 33 31.3 31.1 30.6zM26.1 37.7c-0.2 0.4-0.3 0.1-0.5-0.3-0.2-0.4-0.5-0.5-0.6-1-0.1-0.5 0-1.3-0.2-1.9-0.2-0.5-0.5-0.4-0.7-0.8-0.2-0.4 1.5-1.1 1.5-1.1l-0.5 0.8c-0.5 0.8 0 0.5 0.4 1.1 0.4 0.6 0.6 0.9 0.9 1.4C26.8 36.4 26.4 37.3 26.1 37.7zM30.8 38.9c-0.1 1.1-0.6 2.3-0.8 2.6-0.3 0.3-0.6-0.3-0.6-0.3-0.3-0.2-0.2-1.6-0.2-1.6 0-0.8 0.8-1.6 1-1.7 0.2-0.1 0.1-0.4 0-0.5-0.1-0.1-0.7-0.4-1.1-1-0.4-0.6-0.6-2.6-0.6-2.6s1.5 1.1 2.1 2C31.1 36.6 30.9 37.8 30.8 38.9z" fill="#8f2f3c" data-fill-palette-color="accent"></path><path d="M68.9 37.3c-0.1 0-4.9-0.9-5.3-1-0.4 0-2.4-0.1-3 0.6-0.6 0.7-1.5 1.5-2.2 1.8 0 0-2.7 0.8-3.1 0.7C55 39.2 56 39 56.6 38.5c0.6-0.5 2.7-4.7 2.7-4.7h-0.6c0 0-0.7 1.3-0.9 1.7-0.2 0.4-1.6 2.3-2.4 2.7-0.9 0.4-4.8 1-5 1-0.2 0.1-1.2 0.2-1.8 0.7-0.6 0.4-0.7 0.8-1.7 1.1-1 0.2-3.1 0.9-3.5 0.6-0.5-0.3-1.1-0.7-0.9-1s0.1-0.5 0.8-0.5c0.7-0.1 1.1-0.4 1.2 0 0.1 0.3-0.3 0.8 0 0.8 0.3 0.1 0.4-0.1 0.5-0.5 0.1-0.4 0-0.6 0.4-0.8 0.4-0.2 2.8-1.2 2.9-1.6 0.1-0.5 0.2-1.4 0.8-1.9 0.6-0.5 1.3-1.1 2.1-1.5 0.8-0.4 0.8-0.7 0.8-0.7s0.4-0.5-0.4 0c-0.8 0.5-2.1 1.1-2.6 1.4-0.5 0.4-0.1 0.7-1 1-0.9 0.3-0.9 0.6-1.4 0.1-0.5-0.6-0.3-0.8-0.7-0.6-0.4 0.2-0.2 0.3-0.9 0.1-0.7-0.2-3.4-1.1-4.2-1.3-0.8-0.2-1.8 0.2-2.9-0.1-1-0.3-1.6-0.2-1.5-0.5 0.1-0.3-0.1-0.3 1.1-0.8 1.2-0.5 1.1-0.6 2.2-0.7 1.1-0.1 2.6 0 3.9 0 0 0 1.8 0 2 0.2 0.3 0.1 0.7 0.5 1 0.5 0 0 0.8-0.3 1.2-0.4 0.4-0.1 4.9-1.7 4.9-1.7s0.2-0.1 0.7-0.1c0.5 0 1.7 0.1 2.2 0.1 0.5 0 1.5-0.1 1.9-0.3 0.5-0.2 4.5-2.1 5.4-2.3 0.9-0.2 1.9 0.1 3.4-0.1 1.6-0.2 2.9-0.6 3.8-1.1 0.9-0.5 0.9-1.2 0.9-1.2s-5.4 1.1-6.5 1.1c-1.1 0-2.7 0.3-3.9 0.9-1.2 0.6-5.9 1.6-6.5 1.7-0.6 0.1-7 2-7.6 2-0.6 0-6-0.7-7.8-0.3-1.8 0.4-3.3 1-3.5 1.3-0.1 0.3-0.2 1.2 0 1.4 0.2 0.2 0.9 0.8 1.3 0.8 0.4 0 1.1 0.1 1.6 0.2 0.5 0 0.7-0.1 1.3 0 0.6 0.1 1.8 0.2 2.6 0.5 0.8 0.3 2 0.3 2.6 0.8 0.6 0.5 0.4 0.8 0.4 1 0 0.2-0.3 0.7-0.8 1-0.5 0.2-2.8 0.7-3 1-0.2 0.2-0.5 0.7-0.3 1.2 0.2 0.5 0.1 0.6 0.6 0.9 0.5 0.3 0.9 0.7 1.2 1 0.3 0.3 0.8 0.7 0.9 1.2 0.2 0.5 0.6 1.5 0.7 2 0.1 0.4 1.5 1.7 2.2 1.9 0.6 0.2 1.3 0.5 1.8 0.4 0.5-0.1 0.9-0.7 1.1-1.1 0.2-0.4 0.3-1.1 0.3-1.6-0.1-0.5 0.2-0.5-0.2-1.2-0.3-0.7-0.4-0.8-0.4-1.1 0-0.3-0.1-0.7 0.5-1 0.5-0.2 0.5-0.2 0.5 0 0 0.2-0.1 0.8-0.1 1.3 0 0.5-0.2 2.1 0 2.5 0.2 0.4 0.8 1.2 1 1.3 0.2 0.1 0.5 0.7 1.3 0 0.7-0.7 1-0.8 1.1-1.9 0.1-1.1-0.2-2.2 0.9-2.9 1.1-0.7 2.9-1.5 3.2-1.8 0.3-0.3 1.8-1.5 2.2-1.8 0.4-0.3 1-0.7 1.7-1.1 0.7-0.4 1.2-0.4 2.1-0.2 0.9 0.2 5.1 0.9 6 0.8 0.9-0.1 1.1 0.1 1.1-0.1 0-0.2 0-0.8 0-0.8S69 37.3 68.9 37.3zM46.6 46.2c-0.1-0.4-0.7-0.8-1.1-1.3-0.4-0.5-0.5-0.9-0.7-1.6-0.2-0.7 0.1-0.5 0.6-0.8 0.5-0.3 1.2 0.8 1.2 0.8s0.3 2.7 0.3 2.8C47 46.4 46.7 46.6 46.6 46.2zM48.1 42.2c-0.8 0.6 0.1 0.8 0.1 0.9 0 0.1 0.5 1.3 0.8 1.9 0.3 0.6-0.1 0.9-0.2 1.4-0.1 0.5-0.1 0.6-0.6 0.8-0.5 0.2-0.3-0.2-0.3-0.6 0-0.4-0.1-2.2-0.2-2.5-0.1-0.3-0.3-0.9-0.6-1.6-0.3-0.7 0.6-0.8 1.6-1.4 0.9-0.6 2.7-0.9 2.7-0.9l-0.7 0.4C50.6 40.6 48.9 41.6 48.1 42.2zM55.5 40.8c-0.8 0.5-1.3 0.4-2 0.5-0.3 0.1-0.6 0-0.7 0 0.3 0.1 0.4 0.4 0.5 1 0.1 0.7 0 0.5-0.5 0.9-0.5 0.4-0.2 0.4-0.2 1 0 0.6-0.3 2.1-0.8 2.2-0.5 0.1-0.4 0-0.6-0.5-0.3-0.5 0.1-1.7 0.2-1.9 0.1-0.2 0-0.9 0-1.3 0-0.4 0.7-1.3 0.7-1.3s-0.2-0.1-0.5-0.7c-0.3-0.6 2.3-0.8 2.8-0.9s2.6-0.3 2.6-0.3S56.3 40.2 55.5 40.8zM52.8 41.3C52.8 41.3 52.8 41.3 52.8 41.3 52.7 41.2 52.7 41.2 52.8 41.3z" fill="#8f2f3c" data-fill-palette-color="accent"></path><path d="M52.8 41.3C52.7 41.2 52.7 41.2 52.8 41.3 52.8 41.3 52.8 41.3 52.8 41.3z" fill="#8f2f3c" data-fill-palette-color="accent"></path></g></svg></g></svg></g></svg></g></svg></g><g></g></svg></g><defs></defs></svg><rect width="334.92010617858256" height="247.2" fill="none" stroke="none" visibility="inline"></rect></g></svg></g></svg>